Patient4_TMGait_0pt7_01_left_25_EMG.mot
version=1
nRows=30
nColumns=33
inDegrees=no
endheader
time	1LAddLong	2LGlutMax	3LGlutMed	4LIliopsoas	5LSemiMemb	6LBicFemLong	7LRecFem	8LVastMed	9LVastLat	10LGasMed	11LTibAnt	12lTibPost	13LPeroneusLong	14LSol	15LExtDigLong	16LFlexDigLong	17RAddLong	18RGlutMax	19RGlutMed	20RIliopsoas	21RSemiMemb	22RBicFemLong	23RRecFem	24RVastMed	25RVastLat	26RGasMed	27RTibAnt	28RTibPost	29RPeroneusLong	30RSol	31RExtDigLong	32RFlexDigLong
29.195	-0.046082	1.7619	0.10422	0.012512	-0.25238	0.53772	1.8825	0.028839	-0.5513	-0.16754	0.072784	0.00946	-0.008087	0.10834	0.042114	-0.007019	0.043488	0.79437	0.20203	0.18921	-0.10651	-0.29678	0.62393	0.016327	-0.02182	0.005188	-0.027008	-0.009766	0.054779	0.072937	-0.00412	-0.022278
29.196	-0.044708	1.7836	-0.042572	0.006409	-0.38147	0.49637	1.7896	0.038757	-0.52582	-0.23499	0.043488	0.021515	-0.02182	0.088654	0.034637	-0.003052	0.064697	0.61645	0.058441	0.075073	-0.20264	-0.18555	0.6192	0.014801	-0.007172	-0.002594	-0.00473	-0.00946	-0.005035	0.073242	-0.004425	-0.015717
29.197	-0.018921	1.7526	-0.1561	-0.007019	-0.36148	0.28244	1.38	0.053711	-0.52139	-0.17761	0.027161	0.026398	-0.084381	0.014954	-0.026855	0.02182	0.15396	0.56366	-0.060883	-0.022278	-0.26215	-0.088806	0.60089	0.002899	0.012665	-0.002289	-0.10712	-0.011597	-0.01297	0.024109	-0.003204	-0.018311
29.198	0.042419	1.6399	-0.18494	0.010681	-0.23407	0.15976	0.88119	0.042877	-0.49652	-0.12909	0.016937	0.021973	0.3656	-0.14496	-0.12131	0.040588	0.24338	0.40161	0.062256	-0.17105	-0.33539	-0.006409	0.56946	-0.10941	0.007782	0	0.008698	-0.009003	-0.050201	0.012512	-0.01236	-0.014191
29.199	0.058594	1.431	-0.16663	0.010681	-0.21118	-0.271	0.57724	0.04715	-0.45563	-0.081482	0.020905	0.033875	0.26581	-0.27466	-0.17716	0.049896	0.27695	0.19882	0.14908	-0.2475	-0.32028	0.070801	0.58395	-0.18539	0.007935	-0.002441	0.004578	-0.014648	-0.074921	-0.00473	-0.007935	0.004425
29.2	0.071411	1.3768	0.002441	-0.005035	0.010529	-1.0637	0.50369	0.027008	-0.46722	-0.098267	0.006561	0.049286	-0.20126	-0.18829	-0.075073	0.092316	0.20783	0.13092	-0.44205	-0.18677	-0.29495	0.058441	0.60562	-0.10498	0.006409	0.000305	0.12436	-0.014648	-0.030518	-0.009613	-0.004883	-0.01709
29.201	0.059357	1.3443	0.12878	0.000153	0.064087	-0.63126	0.60242	0.009766	-0.44418	-0.079041	0.022583	0.06546	-0.3157	-0.036926	-0.005341	0.089569	0.11871	0.14374	-0.14206	-0.23483	-0.20233	0.043793	0.5368	0.033569	0.03418	0.001984	0.22964	-0.016785	0.030975	-0.00824	-0.004578	-0.016479
29.202	0.055389	1.2454	0.034027	-0.00946	0.17944	-0.7402	0.82642	-0.004883	-0.39368	-0.049438	0.009766	0.076447	0.14053	0.015564	-0.084686	0.086975	0.072327	0.12848	0.23331	-0.18234	-0.078125	-0.036469	0.439	0.23941	0.073547	-0.007935	-0.11536	-0.01709	-0.065155	0.008698	-0.012207	-0.023499
29.203	0.053864	1.2019	-0.02243	0.002289	0.21744	-0.53451	0.77301	-0.034027	-0.30945	-0.016174	0.009613	0.080414	-0.04364	0.007629	-0.099182	0.075378	0.017548	0.062714	0.24323	-0.10513	-0.053558	-0.10773	0.48431	0.17273	0.059357	-0.013275	-0.25864	-0.019073	-0.13901	0.030823	-0.009918	-0.022125
29.204	0.042267	1.1559	0.058289	0.008545	0.093231	-0.069733	0.53329	-0.028992	-0.31281	0.007782	-0.001221	0.093384	0.080414	-0.038757	-0.067596	0.090485	0.004883	-0.023804	-0.02121	0.036163	-0.039673	-0.099487	0.5452	0.2298	0.030823	-0.012665	-0.32181	-0.022278	-0.13351	0.009766	-0.006409	-0.024719
29.205	0.026703	1.1539	0.14603	0.003204	0.005341	0.11566	0.16953	-0.012817	-0.36118	-0.011444	-0.00412	0.11185	-0.042419	0.0383	0.12405	0.04425	-0.099487	-0.013733	0.13123	0.069427	0.049896	-0.049438	0.49545	0.37949	0.057526	-0.002899	-0.49683	-0.013885	-0.084381	-0.080261	-0.014496	-0.018768
29.206	0.024109	1.2077	0.063171	0.010681	-0.015564	0.17777	-0.1622	0.002136	-0.31677	-0.12375	-0.002289	0.11627	-0.04425	-0.06073	0.11902	0.065765	-0.16708	-0.086823	0.2179	0.062408	0.071259	0.038605	0.52109	0.40665	0.075531	0.016632	-0.53604	-0.016479	0.020752	-0.25909	-0.014648	-0.020905
29.207	0.011292	1.2073	-0.053253	0.011902	-0.041199	0.18601	-0.32593	0.00946	-0.28351	-0.18768	0.006104	0.14023	-0.012665	-0.17899	0.090027	0.1976	-0.16907	-0.13825	0.30991	0.025787	0.021973	-0.095978	0.60394	0.34882	0.057526	0.02182	0.12528	-0.013885	0.041809	-0.33234	-0.013428	-0.02533
29.208	0.013428	1.2048	0.032959	0.006561	-0.023804	0.1297	-0.58029	0.012817	-0.27069	-0.11871	0.00351	0.15869	0.066223	-0.34225	0.076141	-0.50568	-0.19836	-0.15503	0.44983	0.003967	0.041809	-0.21759	0.58334	0.29572	0.036469	0.024414	0.89371	-0.010529	0.052032	-0.3157	-0.013275	-0.023804
29.209	0.031128	1.2599	0.066833	0.005951	0.019989	0.11169	-0.87296	0.022278	-0.2507	-0.058441	-0.010529	0.19699	0.1387	-0.44296	0.029907	0.1796	-0.20004	-0.17059	0.39078	-0.025024	0.078583	-0.28427	0.6778	0.20996	0.006256	0.023499	0.68619	-0.01297	-0.061646	-0.19531	-0.011597	-0.027313
29.21	0.031128	1.2575	0.053253	-0.003815	-0.066986	0.13779	-0.95917	0.015106	-0.12848	-0.001831	-0.002747	0.22614	0.094452	-0.34317	0.01236	1.0526	-0.15411	-0.2034	0.13107	-0.069275	0.088959	-0.20737	0.7486	0.10941	-0.014038	0.005951	-0.1445	-0.014801	-0.16266	-0.11444	-0.021515	-0.035095
29.211	0.027771	1.2187	-0.06073	0.004425	-0.11093	0.021667	-0.80978	0.016022	-0.018921	0.078278	0.003357	0.21469	0.060425	-0.24689	0.030975	-0.17517	-0.13428	-0.19104	-0.54489	0.10452	0.025024	-0.10681	0.74371	0.12116	-0.024414	-0.004883	-0.336	-0.019989	-0.062408	-0.098877	-0.017395	-0.032043
29.212	0.029755	1.1464	-0.16449	0.008087	-0.070648	0.011749	-0.67581	-0.017548	0.076599	0.13886	-0.00061	0.19486	0.001984	-0.21942	0.028076	-0.25116	-0.15366	-0.17349	-0.34653	0.18143	0.020905	-0.14389	0.7634	0.12802	-0.026093	0.003052	0.027313	-0.012512	0.090027	0.06134	-0.015106	-0.021667
29.213	0.022583	1.0664	-0.2327	0.015564	-0.06073	0.052338	-0.69015	-0.017395	0.11047	0.071716	0.005646	0.31113	-0.052185	-0.17853	0.009918	0.35736	-0.103	-0.16632	-0.091705	0.18265	-0.021515	-0.24033	0.74112	0.10315	-0.044098	0.016327	0.17944	-0.010223	0.26703	0.001373	-0.013275	-0.019989
29.214	0.027771	0.95139	-0.3186	0.00351	-0.02594	0.072479	-0.83221	-0.007019	0.10346	-0.045013	0.008087	0.18249	-0.057831	-0.37567	0.003052	-0.075684	-0.084076	-0.26459	0.049591	0.17227	-0.050354	-0.15961	0.78903	-0.000153	-0.053101	0.011292	-0.072632	-0.011139	0.19882	0.039673	-0.015106	-0.019226
29.215	0.032806	0.78018	-0.37796	0.006104	-0.071411	0.033264	-0.94849	-0.005493	0.12375	0.068359	0.005951	0.28625	-0.03067	-0.19989	0.00412	0.28397	-0.075531	-0.27466	0.14206	0.14099	-0.11536	-0.08316	0.85968	-0.038605	-0.055389	0.000916	-0.10483	-0.003052	0.059509	0.20035	-0.015564	-0.019379
29.216	0.033569	0.63568	-0.15839	0.009766	-0.12528	0.076294	-1.0237	-0.009155	0.14679	0.034332	0.00824	0.050812	0.022125	-0.049438	0.001221	-0.34836	-0.065155	-0.23392	0.06897	0.060272	-0.16007	-0.08667	0.8783	-0.032806	-0.071716	0.002136	-0.45105	-0.011749	-0.032654	0.23544	-0.014496	-0.025635
29.217	0.037537	0.51636	-0.10269	0.019531	-0.11765	0.11002	-1.1523	-0.012207	0.2919	0.18082	0.008698	0.15335	0.076752	0.044861	-0.016174	0.15518	-0.039673	-0.21652	0.022888	0.02121	-0.16113	-0.061646	0.81741	-0.050354	-0.047607	-0.001221	-0.27206	-0.009613	-0.12116	0.22049	-0.015106	-0.025635
29.218	0.045471	0.35904	-0.06424	0.037537	-0.064087	0.18997	-1.1263	0.003815	0.60303	0.23102	0.007019	0.10056	0.088348	-0.031281	-0.002899	0.14801	-0.032501	-0.2504	-0.15793	0.049133	-0.16937	-0.10529	0.84259	-0.072021	-0.055084	0.00473	0.002594	-0.005798	0.007324	0.10864	-0.016327	-0.017242
29.219	0.037537	0.25528	-0.1265	0.025024	0.028229	0.20569	-1.0225	0.002441	0.53909	0.24185	0.009308	0.10788	0.046997	-0.23865	-0.015411	-0.097198	-0.019836	-0.16998	-0.039368	-0.02533	-0.16357	-0.10498	0.88303	-0.068665	-0.043488	-0.000153	-0.096588	-0.000458	-0.059509	0.021973	-0.016022	-0.014191
29.22	0.02121	0.27603	-0.048523	0.001984	0.013885	0.23926	-1.0173	-0.006714	0.41672	0.089264	0.014496	0.047607	-0.000916	-0.1236	-0.046692	-0.005188	-0.021667	-0.17868	0.026703	-0.10925	-0.15747	-0.13763	0.88104	-0.13657	-0.066833	-0.003357	-0.47882	-0.004883	-0.076447	0.00412	-0.018921	-0.020447
29.221	0.017395	0.37567	0.10315	-0.011292	-0.029449	0.15366	-1.0982	-0.006104	0.37018	-0.00473	0.014343	0.070496	-0.02182	0.016174	-0.038452	0.13519	-0.009766	-0.13626	-0.13077	-0.053101	-0.14191	-0.20187	0.60837	-0.14771	-0.046692	0	-0.4776	-0.001068	-0.056915	-0.058289	-0.015869	-0.018768
29.222	0.007629	0.36957	0.048065	-0.007629	-0.065765	0.092468	-1.1562	-0.013123	0.094604	-0.074158	0.003815	0.059357	0.025787	0.004883	-0.024719	0.092621	0.008392	-0.088348	-0.33844	0.074158	-0.13336	-0.16876	0.39871	-0.13657	-0.069427	-0.002441	-0.22034	-0.000458	-0.11612	-0.11307	-0.014954	-0.017853
29.223	-0.007172	0.27374	0.006409	-0.006256	-0.072174	0.12482	-1.2817	0.041199	-0.054169	-0.17151	0.00946	0.062103	0.012512	0.19989	-0.002289	-0.042725	-0.020447	-0.077057	-0.33859	0.14206	-0.15854	-0.21942	0.28976	-0.17425	-0.064545	0.007019	-0.035553	0.001221	-0.082703	-0.09613	-0.023193	-0.018921
29.224	0.084534	0.13794	0.010834	0.002747	-0.051117	0.16129	-1.3055	-0.007172	-0.20447	-0.13809	-0.001373	0.030975	-0.00061	0.23483	-0.001373	-0.027161	0.01709	-0.066681	0.036163	0.073395	-0.16052	-0.2095	0.39002	-0.22934	-0.070801	-0.002289	0.56778	0.00061	0.062561	-0.047607	-0.015411	-0.023499
